<svg xmlns="http://www.w3.org/2000/svg" viewBox="0 0 64 64">
  <defs>
    <linearGradient id="g" x1="0" y1="0" x2="1" y2="1">
      <stop offset="0" stop-color="#4fb3ff"/>
      <stop offset="1" stop-color="#2d7dd2"/>
    </linearGradient>
    <style>
      .ring{fill:none;stroke:#0b3a5c;stroke-width:2}
      .wedge{stroke:#ffffff;stroke-width:1.2}
      .center{fill:#ffffff;stroke:#0b3a5c;stroke-width:2}
      .pointer{fill:#2d7dd2}
    </style>
  </defs>
  <!-- Outer ring -->
  <circle class="ring" cx="32" cy="32" r="28"/>
  <!-- Wedges (8) -->
  <path class="wedge" fill="#abf1ff" d="M32 32 L58 32 A26 26 0 0 1 50.384 50.384 Z"/>
  <path class="wedge" fill="#7be0ff" d="M32 32 L50.384 50.384 A26 26 0 0 1 32 58 Z"/>
  <path class="wedge" fill="#eaf6ff" d="M32 32 L32 58 A26 26 0 0 1 13.616 50.384 Z"/>
  <path class="wedge" fill="#cfefff" d="M32 32 L13.616 50.384 A26 26 0 0 1 6 32 Z"/>
  <path class="wedge" fill="#abf1ff" d="M32 32 L6 32 A26 26 0 0 1 13.616 13.616 Z"/>
  <path class="wedge" fill="#7be0ff" d="M32 32 L13.616 13.616 A26 26 0 0 1 32 6 Z"/>
  <path class="wedge" fill="#eaf6ff" d="M32 32 L32 6 A26 26 0 0 1 50.384 13.616 Z"/>
  <path class="wedge" fill="#cfefff" d="M32 32 L50.384 13.616 A26 26 0 0 1 58 32 Z"/>
  <!-- Center cap -->
  <circle class="center" cx="32" cy="32" r="6"/>
  <!-- Pointer on right -->
  <path class="pointer" d="M62 32 L56 28 L56 36 Z"/>
</svg>
